<?xml version="1.0" encoding="UTF-8"?>
<svg id="Layer_2" data-name="Layer 2" xmlns="http://www.w3.org/2000/svg" viewBox="0 0 400.18 546.34">
  <defs>
    <style>
      .cls-1 {
        fill: #4fd046;
      }

      .cls-2 {
        fill: #27aae1;
      }
    </style>
  </defs>
  <g id="Layer_1-2" data-name="Layer 1">
    <g>
      <path class="cls-1" d="M259.11,265.44c-10.68,12.22-38.01,21.36-69.53,15.12-4.01-.78-8.64-1.95-13.62-3.68,2.01-31.36,13.71-59.72,30.99-74.68,9.38-8.14,19.56-11.7,30.26-10.57,13.28,1.39,24.52,10.68,30.06,24.87,5.2,13.21,5.76,33.03-8.17,48.95Z"/>
      <path class="cls-1" d="M400.18,242.13c0,85.12-57.87,157.79-134.29,186.64-20.79,7.86-42.97,11.39-65.17,10.89h-.04c-3.21-10.53-22.22-74.96-24.8-135.63,2.84.76,5.74,1.45,8.66,2.01,37.54,7.43,75.35-2.04,94.15-23.5,18.06-20.64,22.96-49.6,12.78-75.55-9.16-23.39-28.42-38.79-51.53-41.24-17.89-1.88-35.2,3.92-50.03,16.79-20.47,17.76-34.46,47.48-38.81,81.44-13.56-9.83-26.53-25-34.5-48.34-2.32-6.8-9.7-10.42-16.5-8.1-6.78,2.32-10.42,9.7-8.1,16.5,10.61,31.04,30.86,55.17,57.61,69.57.48,58.31,16.72,120.88,23.67,145.14-16.07-1.23-31.88-4.74-46.87-10.68C52.35,398.79,0,326.54,0,242.13,0,131.58,89.58,0,200.13,0s200.05,131.58,200.05,242.13Z"/>
      <path class="cls-2" d="M304.73,491.94H95.45c-7.45,0-13.49-6.04-13.49-13.49s6.04-13.49,13.49-13.49h209.28c7.45,0,13.49,6.04,13.49,13.49s-6.04,13.49-13.49,13.49Z"/>
      <path class="cls-2" d="M279.46,546.34H120.73c-7.45,0-13.49-6.04-13.49-13.49s6.04-13.49,13.49-13.49h158.73c7.45,0,13.49,6.04,13.49,13.49s-6.04,13.49-13.49,13.49Z"/>
    </g>
  </g>
</svg>